<svg width="526" height="468" viewBox="0 0 526 468" fill="none" xmlns="http://www.w3.org/2000/svg">
<path d="M407.664 316.486C408.009 316.486 408.353 316.486 408.698 316.486C408.353 316.141 408.353 316.141 408.009 315.797C407.664 316.141 407.664 316.486 407.664 316.486Z" fill="#F5EBDA" fill-opacity="0.05"/>
<path d="M245.017 85.9562C237.091 73.5509 225.72 65.97 210.558 67.0037C203.322 67.3483 196.43 69.4159 190.572 72.8618C191.261 70.1051 191.95 67.3484 193.329 64.5917C198.497 55.2878 206.078 52.531 216.416 54.9431C219.862 55.6323 223.997 54.9431 227.098 53.5648C228.132 53.2202 232.612 50.808 229.166 50.1189C216.072 47.0176 201.599 48.3959 189.883 55.2877C187.471 56.6661 185.059 58.389 183.336 60.4566C181.268 57.6998 178.856 55.6323 175.755 53.5648C165.417 47.3622 152.322 48.0514 140.951 50.8081C139.917 51.1527 133.025 52.531 133.715 54.5985C134.404 56.666 140.606 55.2877 141.985 54.9431C156.458 51.8418 167.14 59.0782 172.309 70.105C166.795 67.6929 160.937 67.0038 154.045 67.693C150.255 68.0375 146.809 68.7267 143.708 70.105C142.329 71.4834 141.64 72.5171 140.606 73.5509C139.573 73.2063 138.884 72.8618 137.85 72.5172C130.269 76.3077 124.066 81.8211 119.242 89.4021C117.863 91.4696 124.755 91.125 125.1 90.7804C127.512 90.4358 132.681 89.7466 134.404 87.3345C138.884 80.0981 145.775 71.4834 155.424 73.8955C161.626 75.6185 167.14 79.7536 171.275 84.5778C163.349 85.267 155.079 87.6792 148.532 92.1588C142.329 96.6385 138.539 102.496 136.471 109.044C137.16 109.733 137.85 110.767 137.505 111.8C137.505 113.523 136.471 114.557 135.438 114.902C135.093 119.726 135.438 124.55 136.471 129.374C137.16 132.476 152.667 129.03 151.978 125.929C148.187 109.388 154.045 86.99 174.721 90.0913V94.9155C174.721 94.9155 174.721 94.9155 174.376 94.9155C173.342 95.2601 172.653 95.6046 171.964 95.9492C171.275 96.6384 170.586 97.3276 170.241 98.3614C168.863 101.118 168.173 104.219 168.518 107.321C168.863 110.422 169.552 113.523 171.619 115.935C172.653 116.969 173.687 118.003 174.721 119.037V141.09C174.721 143.503 189.193 142.813 189.193 138.678V118.692C189.883 118.348 190.572 117.658 191.261 117.314C194.362 114.557 196.43 110.422 195.741 106.287C195.741 104.909 195.052 103.875 194.707 102.841C194.707 103.875 194.018 104.564 193.329 105.598C191.261 104.564 189.193 103.186 189.883 100.429C189.883 99.7398 190.917 98.3614 191.261 98.3614H191.606C190.916 97.6722 190.227 96.983 189.538 96.6385L189.193 96.2938V91.4696C189.538 91.125 190.227 90.7805 190.227 90.4359C208.146 92.848 216.416 111.456 212.281 129.719C211.936 131.097 226.754 130.753 227.788 126.273C229.166 120.415 229.511 114.213 228.132 108.699C227.788 109.044 227.098 109.044 226.754 109.388C226.754 109.044 226.409 108.354 226.409 108.01C226.754 108.01 227.443 108.01 228.132 107.665C226.754 101.807 223.997 96.6385 219.173 92.1588C211.247 85.267 200.909 83.8886 190.916 84.5778C196.085 77.3414 202.977 71.1389 212.626 74.5847C220.207 77.3415 225.72 83.1995 229.855 90.0913C231.923 92.848 246.051 87.6791 245.017 85.9562ZM172.998 59.4228C172.653 59.0782 172.309 59.0782 171.964 58.7336C172.309 58.0444 172.998 57.6998 173.342 57.0107C173.687 57.3552 174.032 57.3553 174.376 57.6999C173.687 58.0445 173.342 58.7336 172.998 59.4228ZM186.781 92.848C185.748 92.848 184.714 92.8479 183.68 92.5033C183.68 92.1588 183.68 91.8142 183.68 91.125C184.369 90.4358 185.059 90.0912 186.781 89.0574V92.848Z" fill="#F5EBDA" fill-opacity="0.05"/>
<path d="M479.337 380.925C480.026 380.581 480.715 380.236 481.405 379.547C481.06 370.932 478.992 362.662 474.857 355.081C473.479 352.669 471.756 350.257 469.688 348.534C472.445 346.466 474.513 344.054 476.58 340.953C482.783 330.615 482.094 317.521 479.337 306.149C478.992 305.116 477.614 298.224 475.547 298.913C473.479 299.602 474.857 305.805 474.857 307.183C478.303 321.656 470.722 332.338 459.695 337.507C462.107 331.994 462.797 326.136 462.107 319.588C461.074 310.284 457.628 302.014 452.459 295.122C449.702 293.4 447.635 290.987 445.912 288.575C444.189 287.197 442.466 285.819 440.743 284.785C438.331 283.406 439.02 289.954 439.365 290.643C439.709 293.055 440.398 298.224 442.811 299.947C450.047 304.426 459.006 311.318 456.249 320.967C454.526 327.169 450.391 332.683 445.567 336.818C444.878 328.548 442.466 320.622 437.986 314.075C431.784 304.771 421.791 300.98 411.797 300.98C409.385 301.325 407.318 301.67 404.561 301.67C404.216 301.67 403.872 301.67 403.183 301.67C402.494 301.67 401.804 302.014 400.771 302.014C398.014 302.703 400.081 314.419 402.838 317.176C402.838 316.832 403.183 316.487 403.183 316.487C406.284 315.453 406.629 312.697 407.662 310.284C408.696 310.974 408.007 313.73 410.764 312.007C411.453 311.663 413.176 313.041 414.21 313.73C413.865 314.764 413.176 315.453 412.831 316.487C427.304 316.142 442.466 323.034 440.054 340.264H435.229C435.229 340.264 435.229 340.264 435.229 339.919C434.885 339.23 434.54 338.196 434.196 337.507C433.507 336.818 432.817 336.129 431.784 335.784C429.027 334.406 425.926 333.716 422.824 334.061C419.723 334.406 416.622 335.095 414.21 337.162C413.176 338.196 412.142 339.23 411.108 340.264H389.054C386.642 340.264 387.332 354.736 391.467 354.736H411.453C411.797 355.426 412.487 356.115 412.831 356.804C415.588 359.905 419.723 361.973 423.858 361.284C427.993 360.594 431.094 358.182 433.851 355.081L434.196 354.736H439.02C439.364 355.081 439.709 355.77 440.054 355.77C437.642 373.689 419.034 381.959 400.771 377.824C399.392 377.479 399.737 392.297 404.216 393.33C405.595 393.675 407.318 394.02 408.696 394.02C409.041 394.02 409.385 394.02 409.73 394.02C411.453 394.02 413.176 394.02 414.554 394.364C423.169 394.364 431.784 391.608 437.986 384.716C444.878 376.79 446.256 366.452 445.567 356.115C452.804 361.284 459.006 368.175 455.56 377.824C452.804 385.405 446.946 390.918 440.398 395.053C436.608 397.465 442.121 411.594 443.844 410.56C445.567 409.526 446.945 408.492 448.324 407.114C450.047 405.046 451.77 402.979 454.182 401.601C460.04 394.709 463.141 386.094 462.452 376.101C462.108 368.865 460.04 361.973 456.594 356.115C459.351 356.804 462.107 357.493 464.864 359.216C474.168 364.385 476.925 371.966 474.513 382.304C473.824 385.749 474.513 389.885 475.891 392.986C476.236 394.02 478.648 398.499 479.337 395.053C479.682 394.02 479.682 392.986 480.026 391.952L479.682 392.297C478.992 388.506 478.648 386.094 478.303 383.682C478.648 382.648 478.992 381.27 479.337 380.925ZM470.378 336.473C471.411 335.095 472.445 333.372 474.168 336.129C472.79 336.129 471.411 336.473 470.378 336.473C470.033 336.473 470.033 336.473 470.378 336.473Z" fill="#F5EBDA" fill-opacity="0.05"/>
<path d="M41.0198 151.083C40.6752 150.738 40.6754 150.738 40.3308 150.394C39.6416 149.705 38.9523 149.015 38.2631 148.326C38.2631 148.326 38.2632 148.326 37.9186 148.326C36.5403 147.637 35.5064 146.603 34.128 145.57C32.4051 144.191 31.0267 143.157 29.6484 141.779C28.6146 140.745 27.5809 139.712 26.8917 138.333C21.7229 134.198 16.5539 131.097 11.7297 129.374C4.8379 127.306 -1.7093 127.306 -8.94568 127.306H-9.63469C-12.3914 127.306 -14.8037 127.306 -16.8712 126.962C-19.2833 126.962 -21.3508 126.617 -24.1075 126.617C-24.4521 126.617 -25.1413 126.617 -25.4859 126.617C-25.8305 126.617 -26.5196 126.617 -26.8642 126.617C-27.8979 126.617 -28.5873 126.617 -29.6211 126.962C-32.0332 127.651 -33.756 129.029 -35.4789 130.752C-36.1681 131.441 -37.2019 132.475 -37.8911 133.509C-36.5127 134.198 -35.4791 135.576 -34.7899 137.299L-34.4452 136.955C-34.1006 137.299 -33.756 137.644 -33.756 137.989L-34.1007 138.678C-33.7561 140.056 -33.4115 141.779 -33.067 143.847C-35.1345 144.88 -37.2019 145.225 -38.9248 145.57V155.563C-38.9248 163.144 -38.2358 171.069 -34.7899 178.65C-32.0332 184.853 -27.5535 190.022 -22.04 195.535L-21.6953 195.88C-21.6953 195.88 -21.6953 195.88 -21.6953 196.224C-21.0061 196.913 -18.5941 199.326 -15.4928 202.082C-13.0806 203.805 -11.3576 205.528 -9.63469 207.596C-4.46585 212.765 0.702951 217.933 1.73672 218.967C4.49344 221.724 13.4526 210.352 11.7297 208.629C9.66215 206.562 2.42581 198.292 0.358277 196.224C-6.53351 189.332 -21.3509 173.481 -23.763 166.245C-25.8305 160.042 -26.1752 153.84 -26.1752 148.326V141.779C-26.1752 139.367 -26.1751 137.299 -26.5197 135.576V135.232H-19.2834C-11.7024 135.232 -3.43217 135.576 4.49339 139.022C11.3852 142.124 16.5541 146.948 21.3784 151.428L31.0268 159.698C33.439 162.799 42.7427 152.461 41.0198 151.083ZM31.7161 152.461C31.7161 152.117 31.7159 151.772 31.3713 151.428H38.9523C38.9523 151.772 38.9523 152.117 38.9523 152.461H31.7161Z" fill="#F5EBDA" fill-opacity="0.05"/>
<path d="M402.839 133.853C402.15 131.441 400.772 129.718 399.049 127.995C398.36 127.306 396.981 125.928 395.948 125.239C395.603 125.239 395.603 124.894 395.603 124.894L395.259 124.55H374.928C367.347 124.55 359.421 125.239 351.84 128.685C345.638 131.441 340.469 135.921 334.956 141.434L334.611 141.779C334.611 141.779 334.611 141.779 334.266 141.779C332.543 143.502 313.246 163.144 311.523 164.866C308.767 167.623 320.138 176.583 321.861 174.86C323.928 172.792 332.199 165.556 334.266 163.488C337.712 160.042 343.57 154.184 349.428 149.36C349.084 148.671 348.394 147.982 347.705 147.292C348.739 146.259 349.428 145.569 350.117 144.536C350.807 145.225 351.496 145.914 352.529 146.948C357.009 143.502 361.144 140.745 363.901 139.711C370.104 137.644 376.306 137.299 381.82 137.299H388.367C390.779 137.299 392.847 137.299 394.569 136.955H394.914V144.191C394.914 151.772 394.569 160.042 391.124 167.968C388.022 174.86 383.198 180.028 378.718 184.853L370.448 194.501C367.691 197.258 378.029 206.217 379.407 204.839C381.82 202.427 380.441 203.805 383.198 201.393C392.157 192.089 398.704 183.819 401.117 175.549C403.184 168.657 403.184 162.11 403.184 154.873V154.184C403.184 151.428 403.184 149.015 403.529 146.948C403.529 144.88 403.873 142.468 403.873 139.711C403.873 139.367 403.873 138.678 403.873 138.333C403.873 137.644 403.873 137.299 403.873 136.955C403.184 135.576 403.184 134.543 402.839 133.853ZM329.787 163.833C329.442 163.488 329.442 163.488 329.097 163.144C329.442 162.799 329.787 162.11 330.131 161.765C330.476 161.421 331.165 161.421 331.51 161.076C331.854 161.421 331.854 161.765 332.199 162.11C331.165 162.799 330.476 163.488 329.787 163.833ZM341.847 144.536C340.124 144.191 338.057 143.502 335.645 143.157C338.746 140.745 340.124 143.157 342.192 143.502C341.847 143.847 341.847 144.191 341.847 144.536ZM356.32 140.056C354.597 139.022 353.563 137.989 351.84 136.955C353.563 136.61 354.942 136.266 357.009 135.576C357.009 137.299 356.664 138.333 356.32 140.056Z" fill="#F5EBDA" fill-opacity="0.05"/>
<path d="M245.362 183.13C245.362 182.441 245.017 175.549 244.328 175.549C240.882 176.238 237.436 176.583 233.99 176.583C234.335 177.272 234.335 178.306 234.335 179.684C233.99 179.684 233.646 179.684 233.301 180.029C232.956 178.995 232.267 177.961 231.923 176.928C231.578 176.928 231.233 176.928 230.889 176.928C227.098 176.928 223.308 176.238 219.862 175.205C216.416 174.171 213.315 172.448 210.213 171.07C205.389 168.658 200.22 165.556 195.051 164.523C193.673 164.178 191.95 164.178 190.916 165.212C189.538 166.935 188.504 169.347 187.47 171.07C186.092 173.482 184.714 175.549 183.336 177.617C182.991 178.306 182.302 178.995 181.957 179.684V180.029C181.957 180.029 181.957 180.029 181.957 179.684C181.268 177.961 179.545 175.894 178.511 174.516C177.133 172.103 175.41 170.036 174.032 167.624C173.342 166.245 172.653 164.523 170.93 164.523C169.207 164.178 166.795 165.212 165.072 165.556C160.937 166.935 157.147 169.002 153.356 171.07C153.701 171.414 154.39 172.103 154.39 172.448C154.39 172.793 153.701 173.137 153.011 173.826C152.322 172.793 151.978 172.448 151.633 171.759C150.599 172.103 149.566 172.793 148.532 173.137C146.12 174.171 144.052 174.86 141.64 175.549C142.329 176.583 143.019 177.272 143.708 177.961C140.951 177.961 139.917 177.961 139.573 175.894C135.782 176.583 131.992 176.928 128.201 176.928C127.512 177.272 126.823 177.962 125.789 178.306C125.789 177.962 125.444 177.617 125.444 177.272C125.789 177.272 125.789 176.928 126.134 176.928C123.721 176.583 121.309 176.239 118.897 175.894C118.553 175.894 118.208 180.374 118.208 182.441C118.897 183.13 119.242 183.475 119.931 184.164C119.586 186.232 118.897 188.299 118.553 190.022C118.553 190.711 118.897 191.056 119.242 191.056C123.377 192.09 127.167 192.09 131.302 192.09C134.404 191.056 137.85 190.367 141.64 190.367C141.985 190.367 142.329 190.367 143.018 190.367C145.431 189.678 147.843 188.644 150.6 187.61C155.768 185.198 160.937 182.096 166.451 180.374C167.829 180.029 169.896 179.34 171.619 180.029C172.998 180.718 174.032 183.13 174.721 184.509C174.376 185.542 174.031 186.576 173.687 187.61L172.309 191.4C171.964 192.434 172.309 193.813 173.342 194.502L179.89 198.292C180.579 198.637 181.613 198.637 182.646 198.292L189.193 194.502C190.227 193.813 190.916 192.434 190.227 191.4L188.504 186.576C188.16 185.887 188.16 185.198 187.815 184.853C188.16 184.164 188.849 183.475 189.193 182.441C190.227 181.063 190.572 179.684 192.295 179.34C194.362 178.995 196.43 180.029 198.153 180.718C203.666 182.786 209.18 185.887 214.693 188.299C219.173 190.367 223.652 191.4 228.477 191.745C229.51 191.056 230.2 190.022 230.544 190.367C233.645 193.123 235.024 190.022 237.436 187.955C237.436 189.678 237.436 190.711 237.436 191.745C239.503 191.4 241.571 191.4 243.639 190.711C246.051 190.367 245.362 183.82 245.362 183.13ZM208.146 178.306C207.801 177.617 207.457 176.583 207.112 175.894C207.457 175.894 207.457 175.549 207.801 175.549C208.49 175.894 209.18 176.583 209.524 177.272C208.835 177.617 208.49 177.962 208.146 178.306Z" fill="#F5EBDA" fill-opacity="0.05"/>
<path d="M365.622 357.492C363.899 356.114 361.487 355.08 359.764 353.702C357.697 352.323 355.285 350.945 353.217 349.567C352.528 349.222 351.839 348.533 351.15 348.188H350.805C350.805 348.188 350.805 348.188 351.15 348.188C352.873 347.499 354.94 345.776 356.318 344.742C358.731 343.364 360.798 341.641 363.21 340.263C364.589 339.573 365.967 338.884 366.312 337.506C365.967 335.783 365.622 334.06 365.622 332.682C365.622 332.337 365.278 331.993 365.278 331.648C363.21 326.134 360.109 320.966 357.697 315.452C353.562 306.148 352.873 295.811 354.94 286.162C354.94 285.473 348.048 285.473 347.359 285.473C346.325 285.473 340.123 285.128 339.778 286.507C339.434 288.574 339.089 290.642 338.744 292.709C339.434 293.398 340.123 293.743 340.467 294.432C339.434 298.912 337.022 303.736 341.846 307.527C341.157 308.56 340.467 308.905 339.434 308.56C340.123 311.662 341.501 314.763 342.88 317.864C345.292 323.033 348.393 328.202 350.116 333.715C350.46 335.094 351.15 337.506 350.461 338.884C349.771 340.263 347.359 341.296 345.981 341.986C344.947 341.641 343.913 341.296 342.535 340.952L338.744 339.573C337.711 339.229 336.332 339.573 335.643 340.607L331.853 347.154C331.508 347.844 331.508 348.877 331.853 349.911L335.643 356.458C336.332 357.492 337.366 358.181 338.744 357.492L343.569 355.769C344.258 355.769 344.603 355.425 345.292 355.08C345.981 355.425 346.67 356.114 347.704 356.458C349.082 357.492 350.461 357.837 350.805 359.56C350.805 361.627 350.116 363.695 349.427 365.418C347.359 370.931 344.258 376.444 341.846 381.958C341.846 382.303 341.846 382.303 341.501 382.647C341.157 386.438 340.123 389.884 338.744 392.985C338.055 398.843 338.4 405.045 339.434 410.904C339.778 411.937 346.326 411.593 347.015 411.593C347.704 411.593 354.94 411.248 354.596 410.559C353.562 406.079 353.217 401.6 353.217 397.12C353.217 393.329 353.562 389.539 354.94 386.093C355.974 382.647 357.697 379.546 359.075 376.445C360.109 373.688 361.143 370.931 362.866 368.519C363.9 366.107 364.933 363.695 365.622 361.283C366.312 360.249 366.656 358.526 365.622 357.492ZM349.771 328.202C349.771 327.168 349.427 326.134 349.427 325.445C349.771 325.445 349.771 325.445 350.116 325.101C350.46 326.134 350.805 326.824 350.805 327.857C350.461 328.202 350.116 328.202 349.771 328.202Z" fill="#F5EBDA" fill-opacity="0.05"/>
<path d="M32.0609 346.81L28.2705 340.263C27.5813 339.229 26.2029 338.885 25.1691 339.229L21.3787 340.608C20.3449 340.952 19.3111 341.297 18.2773 341.642C16.899 340.952 14.4869 339.919 13.7977 338.54C13.1085 337.162 13.7976 334.75 14.1422 333.371C15.8651 327.858 18.9666 322.689 21.3787 317.52C24.1354 311.662 25.8582 306.149 26.2028 299.602C26.2028 295.122 25.8584 290.642 24.8246 286.163C24.48 285.129 18.2774 285.129 17.2436 285.129C16.5544 285.129 9.31798 285.129 9.66257 285.818C11.7301 295.811 11.3856 306.149 6.9059 315.108C4.49377 320.622 1.39242 325.79 -0.675113 331.304C-0.675113 331.304 -0.675028 331.648 -1.01962 331.993C-0.675028 332.338 -0.330607 332.682 -0.330607 333.027C-0.330607 333.716 -0.67507 334.061 -1.70884 334.75C-1.70884 335.439 -2.05343 336.473 -1.70884 337.162C-1.36425 338.885 0.0139822 339.574 1.39234 340.263C3.80447 341.642 5.872 343.02 8.28413 344.743C10.0071 345.777 11.73 347.5 13.453 348.189H13.7977C13.7977 348.189 13.7976 348.189 13.453 348.189C12.7638 348.533 12.0747 349.222 11.3855 349.567C9.31798 350.945 6.90577 352.324 4.83824 353.702C3.11529 354.736 0.35874 355.77 -1.01962 357.148C-2.05339 358.182 -2.05343 359.905 -1.70884 361.283C-0.67507 366.797 2.42611 371.621 4.83824 376.445C5.18282 376.79 5.18287 377.134 5.52746 377.479C6.56122 377.134 7.93954 377.134 8.28413 377.823C10.6963 379.546 12.7639 381.614 15.5206 384.026C13.1085 385.06 11.3856 386.094 9.31807 387.127C9.31807 387.127 9.31798 387.127 9.66257 387.127C10.3518 387.816 10.6964 388.161 11.041 388.161C12.4194 388.85 13.7976 389.195 13.453 390.918C13.1084 392.296 12.0748 393.33 11.041 393.675C11.041 394.708 11.3855 396.087 11.3855 397.12C11.3855 401.6 11.0408 406.08 10.0071 410.559C10.0071 411.249 16.8989 411.593 17.5881 411.593C18.6219 411.593 24.8245 411.938 25.1691 410.904C26.5475 404.701 26.8921 398.154 25.8583 391.952V391.607C25.1691 388.161 24.4799 385.06 22.7569 381.958C20.3448 376.445 17.2435 371.276 15.1759 365.418C14.4867 363.695 13.4531 361.628 13.7977 359.56C13.7977 357.837 15.1759 357.148 16.8989 356.459C17.588 356.114 18.2773 355.425 19.311 355.081C20.0002 355.081 20.3448 355.425 21.034 355.77L25.8583 357.493C26.8921 357.837 28.2703 357.493 28.9595 356.459L32.7501 349.912C32.4055 348.533 32.4055 347.5 32.0609 346.81ZM12.764 321.311C13.1086 320.966 13.453 320.277 14.1422 320.277C14.4868 320.277 14.8315 320.622 15.5206 320.966C14.8315 321.655 14.4868 322.345 14.1422 322.345C13.453 322.345 13.1086 321.655 12.764 321.311Z" fill="#F5EBDA" fill-opacity="0.05"/>
<path d="M96.1546 227.582C93.3979 223.102 87.1955 214.488 83.405 211.042C81.682 209.319 79.6144 209.663 77.8914 211.042C77.5468 211.386 76.8578 212.075 76.5132 212.765C74.7903 215.521 72.7226 218.278 70.9996 221.035C70.3105 222.068 69.966 222.069 68.9322 221.379C67.8984 220.69 66.8647 219.656 65.4863 219.312C63.4188 218.623 61.3513 218.278 59.2837 217.933C55.8378 217.244 53.081 215.177 52.0472 211.731C51.7026 210.697 51.7026 209.663 53.081 209.319C55.4931 208.285 57.9053 207.251 60.3175 206.562C63.0742 205.873 66.1754 206.562 68.243 208.629L76.5132 201.393C76.5132 200.704 76.1684 200.359 75.4793 200.015C73.7563 199.326 72.3781 198.636 70.6551 197.603C66.5201 195.535 62.7296 193.123 59.2837 189.677C58.9391 189.332 57.9052 188.988 57.2161 188.643C55.8377 188.299 54.804 187.954 53.4257 187.609C52.0473 187.265 50.6689 186.576 49.2906 186.576C47.9122 186.231 46.5338 186.576 45.1554 186.576C44.8108 186.576 44.4663 186.576 44.1217 186.92C43.0879 187.265 42.0542 188.299 41.365 188.988C40.3313 190.022 39.2974 191.055 38.2636 192.089C27.2368 203.805 22.068 220.346 21.7234 236.197C21.7234 240.332 25.514 235.852 26.5477 234.818C28.9599 231.717 31.0273 226.893 31.0273 222.758C31.0273 215.521 33.0949 209.663 36.8854 205.528L41.0203 204.839C39.642 207.251 38.6083 209.663 37.9191 211.042C36.5408 216.21 38.6083 220.346 41.365 224.136C43.7772 227.237 45.1555 229.649 48.2568 232.062C49.9798 233.44 51.7026 234.818 53.081 236.541C55.1485 238.953 56.1824 243.778 55.1486 247.568C50.669 251.359 45.5 254.115 39.9866 255.838C39.2974 256.183 43.0879 262.385 43.4325 262.73C44.1217 263.419 47.2231 268.933 48.2568 268.588C52.3919 267.21 56.5268 265.142 59.9727 262.73C59.2836 262.041 58.5946 261.696 57.5608 261.007C57.9054 258.94 58.5944 256.872 58.939 255.149C63.0741 255.149 64.4524 255.838 65.1416 258.595C67.5537 256.527 69.6214 254.115 71.3444 251.359C73.4119 248.602 75.1347 245.501 76.1685 242.055C77.2023 238.953 76.8578 235.852 76.5132 232.751C75.824 227.237 77.547 222.068 79.9591 217.244C80.3037 216.555 80.9929 215.866 81.682 216.9C83.405 218.967 87.54 225.514 88.9183 227.582C89.9521 229.649 89.9522 232.062 88.5738 234.129C87.5401 235.507 86.8507 236.886 85.817 238.264C85.1278 239.298 84.7832 239.987 85.817 240.676C86.5061 241.021 86.8508 241.71 87.1954 242.399C88.9183 244.467 90.2968 246.534 92.0197 248.602C92.3643 248.257 92.3642 247.913 92.7087 247.913C94.4317 243.088 96.1547 238.264 96.8439 233.44C97.533 231.028 97.1884 229.305 96.1546 227.582ZM45.8447 187.954C47.223 188.643 48.6013 189.332 50.3243 190.022C45.8446 191.4 45.8447 191.4 45.8447 187.954ZM51.7027 215.521C51.3581 215.521 51.0136 215.177 50.669 214.488C51.3582 214.143 51.7026 213.798 52.0472 214.143C52.3918 214.143 52.7364 214.832 52.7364 215.177C52.7364 215.177 52.3919 215.521 51.7027 215.521Z" fill="#F5EBDA" fill-opacity="0.05"/>
<path d="M306.354 506.701C307.733 507.045 308.767 507.39 310.145 507.734C311.523 508.079 312.902 508.768 314.625 508.768C316.003 509.113 318.415 508.768 319.794 508.423C320.138 508.423 320.138 508.079 320.483 508.079C322.206 506.701 323.929 505.322 325.652 503.599C336.678 491.883 341.847 475.343 342.192 459.836C342.192 455.701 338.401 460.181 337.368 461.215C334.955 464.316 332.888 469.14 332.888 473.275C332.888 480.512 330.82 486.37 327.03 490.505L322.895 491.194C324.273 488.782 325.307 486.37 325.996 484.647C327.374 479.478 325.307 475.343 322.55 471.552C320.138 468.451 318.76 466.039 315.658 463.627C313.935 462.248 312.213 460.87 310.834 459.147C308.767 456.735 307.733 451.911 308.767 448.12C313.246 444.33 318.415 441.573 323.929 439.85C324.618 439.506 320.827 433.303 320.483 432.958C320.138 432.269 316.692 426.756 315.658 427.1C311.523 428.479 307.388 430.546 303.598 432.958C298.774 436.06 295.328 439.506 292.226 443.985C290.159 446.742 288.436 449.843 287.402 453.289C286.368 456.39 286.713 459.492 287.058 462.593C287.747 468.107 286.024 473.275 283.612 478.1C283.267 478.789 282.578 479.478 281.889 478.444C280.166 476.377 276.031 469.83 274.652 467.762C273.619 465.694 273.619 463.282 274.997 461.215C276.031 459.836 276.72 458.458 277.754 457.08C278.443 456.046 278.787 455.357 277.754 454.668C277.064 454.323 276.72 453.634 276.375 452.945C274.652 450.877 273.274 448.809 271.551 446.742C271.206 447.086 271.206 447.087 270.862 447.431C269.139 452.255 267.416 457.08 266.727 461.904C266.382 463.971 266.727 465.694 268.105 467.417C269.139 469.14 270.862 471.552 272.585 473.965C273.274 473.965 273.963 473.965 274.652 473.965L274.997 474.654C274.652 474.654 273.963 474.998 273.618 474.998C276.375 478.444 279.132 482.235 281.199 484.302C282.922 486.025 284.99 485.681 286.713 484.302C287.058 483.958 287.747 483.268 288.091 482.579C289.814 479.823 291.882 477.066 293.605 474.309C294.294 473.275 294.639 473.275 295.672 473.965C296.706 474.654 297.74 475.687 299.118 476.032C301.186 476.721 303.253 477.066 305.321 477.41C308.767 478.1 311.868 480.167 312.557 483.613C312.902 484.647 312.902 485.681 311.523 486.025C309.111 487.059 306.699 488.093 304.287 488.782C301.53 489.471 298.774 488.782 296.362 486.714L292.916 489.816C292.916 490.505 292.571 490.849 291.537 491.539H291.193L288.091 494.295C288.091 494.985 288.436 495.674 289.125 495.674C290.848 496.363 292.226 497.052 293.949 498.086C298.084 500.153 302.219 502.565 305.321 506.011C304.976 506.356 305.665 506.356 306.354 506.701Z" fill="#F5EBDA" fill-opacity="0.05"/>
<path d="M343.224 211.043C343.224 210.698 343.224 210.353 342.879 210.009C342.19 207.941 339.433 205.529 338.055 204.151C326.339 193.124 309.799 187.61 293.948 187.61C289.812 187.61 294.292 191.401 295.326 192.435C298.427 194.847 303.252 196.914 307.387 196.914C314.623 196.914 320.481 198.982 324.616 202.772L325.305 206.563C322.893 205.184 320.481 204.151 319.103 203.806C313.934 202.428 309.799 204.151 306.008 207.252C302.907 209.664 300.495 211.042 298.083 214.144C296.704 215.867 295.326 217.59 293.603 218.968C291.191 221.036 286.367 222.069 282.576 221.036C280.164 217.934 278.096 214.833 276.374 211.387C273.961 211.387 272.583 209.664 272.583 207.941C272.583 207.252 272.928 206.563 272.928 205.874C271.205 206.563 267.759 208.63 267.414 208.975C266.725 209.32 261.211 212.765 261.556 213.799C262.934 217.934 265.002 222.069 267.414 225.86C268.103 227.238 269.137 228.272 269.826 229.306C270.171 228.617 270.171 227.927 270.515 226.894C270.86 226.894 271.549 226.894 271.894 227.238C272.238 228.617 272.238 230.339 272.583 232.407C274.306 234.13 276.373 235.853 278.441 237.231C281.198 239.299 284.299 241.022 287.745 242.056C290.846 243.089 293.948 242.745 297.049 242.4C302.562 241.711 307.731 243.434 312.555 245.846C313.245 246.191 313.934 246.88 312.9 247.569C310.832 249.292 304.285 253.427 302.218 254.805C300.15 255.839 297.738 255.839 295.67 254.461C294.292 253.427 292.914 252.738 291.535 251.704C290.502 251.015 289.812 250.67 289.123 251.704C288.779 252.393 288.089 252.738 287.4 253.082C285.333 254.805 283.265 256.528 281.198 257.907C281.542 258.251 281.887 258.251 281.887 258.251C286.711 259.974 291.535 261.697 296.36 262.386C298.427 262.731 300.15 262.042 301.873 261.008C306.353 258.251 314.967 252.049 318.413 248.258C320.136 246.535 319.792 244.468 318.413 242.745C318.069 242.4 317.38 241.711 316.69 241.366C313.934 239.643 311.177 237.576 308.42 235.853C307.387 235.164 307.386 234.819 308.076 233.785C308.765 232.752 309.799 231.718 310.143 230.339C310.832 228.272 311.177 226.204 311.521 224.137C312.211 220.691 314.278 217.59 317.724 216.9C318.758 216.556 319.792 216.556 320.136 217.934C321.17 220.346 322.204 222.758 322.893 225.171C323.582 227.927 322.893 230.684 320.825 233.096L328.062 241.366C328.751 241.366 329.096 241.022 329.44 240.333C330.129 238.954 330.819 237.231 331.852 235.853C333.92 231.718 336.332 227.583 339.778 224.481C340.122 224.137 340.467 223.103 340.812 222.414C341.156 221.036 341.501 220.002 341.846 218.623C343.224 216.556 343.568 214.144 343.224 211.043ZM294.292 257.907C295.326 255.15 295.326 255.15 297.738 256.184C296.704 256.873 295.67 257.562 294.292 257.907ZM321.859 216.211C323.582 216.901 324.616 217.245 325.994 217.59C324.271 217.934 322.893 219.313 321.859 216.211ZM332.886 204.495C335.298 204.495 337.021 204.151 337.021 206.907C335.643 206.218 334.264 205.529 332.886 204.495ZM338.744 211.043C339.089 212.076 339.433 213.11 340.467 214.833C337.021 213.799 336.332 213.11 338.744 211.043Z" fill="#F5EBDA" fill-opacity="0.05"/>
<path d="M97.187 469.484C94.0857 464.66 90.6398 461.214 86.1601 458.113C83.4034 456.045 80.302 454.322 76.8561 453.288C73.7548 452.254 70.6535 452.599 67.5522 452.944C62.0387 453.633 56.8699 451.91 52.0456 449.498C51.3565 449.153 50.6674 448.464 51.7011 447.775C53.7687 446.396 60.3158 441.917 62.3833 440.883C64.4509 439.849 66.8631 439.849 68.9306 441.228C70.309 442.261 71.6874 442.95 73.0657 443.984C74.0995 444.673 74.7885 445.018 75.4777 443.984C75.8223 443.295 76.5115 442.951 77.2006 442.606C79.2682 440.883 81.3359 439.505 83.4034 437.782C83.0588 437.437 83.0588 437.437 82.7142 437.437C77.8899 435.714 73.0657 433.991 68.2414 433.302C66.1739 432.957 64.451 433.302 62.7281 434.68C58.2484 437.437 49.6335 443.64 46.1876 447.43C44.4646 449.153 44.8092 451.221 46.1876 452.944C46.5322 453.288 47.2214 453.977 47.9105 454.322C50.6672 456.045 53.424 458.113 56.1808 459.835C57.2145 460.525 57.2144 460.869 56.5253 461.903C55.8361 462.937 54.8024 463.97 54.4578 465.349C53.7686 467.416 53.424 469.484 53.0794 471.551C52.3902 474.997 50.3227 477.754 46.8768 478.788C45.843 479.132 44.8092 479.132 44.4646 477.754C43.4309 475.342 42.3971 472.93 41.708 470.518C41.0188 467.761 41.7081 464.66 43.7756 462.592L36.5391 454.322C35.8499 454.322 35.1608 454.666 34.8162 455.356C34.127 457.079 33.4378 458.457 32.404 460.18C30.3365 464.315 27.9244 468.45 24.4785 471.551C24.1339 471.896 23.7893 472.93 23.4448 473.619C23.1002 474.997 22.7556 476.031 22.411 477.409C21.7219 480.166 21.0327 482.923 21.3773 486.024C21.7219 488.781 24.8232 491.193 26.5461 492.916C38.2622 503.943 54.8023 509.112 70.3089 509.456C74.4439 509.456 69.9644 505.666 68.9306 504.632C65.8293 502.22 61.0051 500.152 56.87 500.152C49.6336 500.152 43.7756 498.085 39.6405 494.294L38.9513 490.159C41.3634 491.538 43.7756 492.571 45.4986 493.26C50.6674 494.639 54.8024 492.571 58.5929 489.815C61.6942 487.402 64.1063 486.024 66.5185 482.923C67.8968 481.2 69.2751 479.477 70.9981 478.099C73.4102 476.031 78.2345 474.997 82.025 476.031C82.7142 476.72 83.0587 477.409 83.7479 478.443V478.099C84.4371 478.443 85.4709 478.788 86.1601 479.132C85.8155 479.477 85.471 480.166 85.1264 480.511L84.7817 480.166C86.8492 483.612 88.9167 487.403 89.9505 491.193C90.2951 491.882 96.4977 488.092 96.8423 487.747C97.5315 487.058 103.045 483.957 102.7 482.923C101.322 477.065 99.2545 472.93 97.187 469.484ZM94.4301 470.173C94.0855 469.484 93.7411 469.139 93.7411 468.45C93.7411 468.106 94.7748 467.761 94.7748 467.761C95.1194 468.106 95.464 468.45 95.8086 469.139C95.464 469.139 95.1193 469.484 94.4301 470.173Z" fill="#F5EBDA" fill-opacity="0.05"/>
<path d="M187.816 264.108C188.85 262.386 180.58 246.534 175.067 252.048L174.722 263.419C161.628 263.419 159.905 281.338 171.276 286.162V292.02C160.938 294.088 152.668 291.676 142.675 291.676V296.155C140.263 292.02 135.094 291.331 132.682 287.885C105.115 278.581 89.6083 278.926 83.7503 293.399C83.7503 294.088 84.0948 294.777 84.0948 295.122C84.0948 298.912 83.4058 302.703 81.6828 305.804V306.148C81.3382 311.317 81.6827 317.175 82.3718 324.412C82.7164 330.959 81.6827 339.574 82.3718 347.499C83.061 349.911 83.4057 352.323 83.7503 354.735C84.4395 357.148 85.4733 359.215 86.8517 361.283C97.8785 379.89 107.527 353.357 137.162 369.208C140.263 370.242 143.709 371.276 146.81 372.31C149.222 370.242 153.357 369.897 153.357 373.688C159.215 374.722 165.418 374.722 171.276 374.722C172.999 395.742 167.141 408.492 174.722 419.518C176.445 418.829 178.512 418.14 180.58 417.451C181.614 419.518 182.647 421.241 183.681 423.309C179.546 425.721 174.722 426.755 170.931 429.167C171.276 432.957 169.209 437.782 175.756 437.782C179.891 437.782 192.296 435.369 192.296 431.579C192.296 423.309 192.296 411.593 192.296 398.498C192.296 398.154 191.951 397.809 191.951 397.465C191.607 395.052 191.262 392.64 190.918 389.884C190.918 387.127 191.262 384.37 192.296 381.614C192.296 364.384 192.296 345.776 192.296 328.891C191.951 326.824 191.607 324.756 191.607 322.689C191.607 320.277 191.951 318.209 192.296 316.142C192.296 305.115 192.296 295.121 192.296 287.541C192.296 287.541 192.296 286.507 192.296 285.473C202.978 278.237 196.776 268.244 187.816 264.108ZM147.155 298.912C145.776 299.946 144.398 300.98 143.364 302.013C143.364 299.601 144.398 298.223 147.155 298.912ZM122.344 357.837V353.357H123.378C123.378 354.736 123.378 356.458 123.723 357.837C123.033 357.837 122.689 357.837 122.344 357.837ZM171.276 321.999V354.391C169.209 354.735 167.141 355.08 165.073 355.425C160.938 355.769 156.459 355.769 152.324 355.425C152.324 355.425 152.324 355.425 151.979 355.425C146.466 354.736 140.608 353.702 135.094 351.979H134.749C133.027 351.29 130.959 350.945 129.236 350.256C128.202 349.911 127.513 349.567 126.479 349.222C123.034 347.844 119.588 346.81 116.142 346.121C115.108 345.776 114.419 345.776 113.385 345.432C111.662 345.087 109.939 344.742 107.872 344.742C106.838 344.742 106.149 344.742 105.115 344.742C104.426 344.742 103.736 344.742 103.047 344.742C101.669 344.742 99.9459 345.087 98.5676 345.432C97.8784 345.432 97.1893 345.776 96.5001 346.121V339.574L96.1554 339.918C95.8108 338.54 95.4663 337.506 95.1217 336.472C94.0879 336.128 93.0543 336.128 92.0205 335.783C92.0205 335.438 92.0205 335.094 92.0205 334.749C93.0543 334.405 93.7434 334.405 94.7772 334.06C94.7772 334.749 95.1217 335.439 95.1217 336.472H96.8446C97.1892 333.026 97.1892 329.236 96.8446 326.135C96.5 320.621 96.1555 315.797 96.8446 311.662C97.1892 308.905 98.223 306.838 100.291 305.115C102.703 303.047 106.149 302.013 111.662 301.669H112.007C113.04 301.669 114.074 301.669 115.453 301.669H115.797C116.486 300.635 117.175 300.29 118.554 299.601C118.554 300.635 118.209 301.324 117.865 301.669C123.034 302.358 127.858 303.736 133.027 305.115C133.371 305.115 133.716 305.115 134.06 305.459C140.952 307.527 147.844 309.939 154.736 311.317C155.769 311.662 156.459 311.662 157.493 311.662C162.317 312.696 166.796 313.04 171.621 312.351V316.831C172.654 316.831 173.688 318.209 175.411 319.587C173.343 320.277 172.31 321.31 171.276 321.999ZM177.479 404.701C176.445 402.978 175.411 402.289 177.479 401.255C178.512 402.289 179.202 402.978 177.479 404.701ZM180.58 404.701C182.647 404.701 184.026 404.356 185.06 404.701C191.951 408.836 179.546 412.282 180.58 404.701ZM187.816 356.803H186.783C187.127 355.08 184.026 353.357 187.816 351.634V356.803Z" fill="#F5EBDA" fill-opacity="0.05"/>
<path d="M267.072 385.06C266.383 377.823 269.484 370.587 260.869 364.384C255.356 360.249 256.734 348.533 255.356 342.33C254.322 337.506 252.944 332.682 251.91 328.202C251.565 328.547 250.532 328.547 250.532 328.202C249.153 327.169 249.498 325.79 251.221 324.412C249.842 319.243 248.464 314.074 246.741 308.905C246.397 307.872 246.052 306.838 245.363 306.149C244.674 305.459 243.64 305.459 242.606 305.459C235.714 304.77 228.822 304.081 221.931 304.081C219.519 304.081 217.451 304.081 215.039 304.081C214.35 304.426 214.005 305.115 213.316 305.459C213.316 304.77 213.316 304.426 213.316 304.081C210.215 304.426 207.113 304.77 204.012 305.804C202.289 306.493 200.566 307.182 199.532 308.905C199.188 309.939 199.188 311.317 198.843 312.351C198.499 319.932 198.499 327.513 198.154 334.75C197.81 344.053 197.809 353.702 201.255 362.317C205.39 372.31 214.35 379.891 223.998 384.715C227.789 370.931 233.647 357.837 241.228 345.776C241.572 345.432 241.572 345.087 242.262 345.087C242.606 345.087 242.951 345.432 243.295 345.432C245.363 347.155 247.43 349.222 249.498 351.29C249.842 351.29 249.842 351.29 250.187 350.945C250.187 351.29 250.532 351.979 250.532 352.324C251.221 354.391 251.566 356.459 252.255 358.182C252.599 359.56 252.944 360.938 253.288 362.317C253.633 364.04 252.944 365.073 251.221 365.763C250.876 365.763 250.876 365.763 250.532 365.763C250.876 366.796 251.221 367.83 251.566 369.208C253.978 376.445 257.079 384.026 255.356 391.262C254.667 394.363 253.288 396.776 251.221 399.188C251.565 397.12 251.221 395.397 250.187 393.674C245.707 387.816 240.539 391.607 239.849 397.809C239.505 402.634 240.883 407.458 241.572 412.282C240.539 416.417 239.505 420.208 239.16 424.343C238.816 426.066 238.816 427.789 239.505 429.167C241.572 433.991 247.43 430.545 249.153 427.444C252.944 421.241 246.397 409.525 255.011 405.39C258.113 404.012 260.18 402.289 261.903 400.566C261.559 398.154 261.214 396.087 260.869 394.364C260.869 393.674 261.214 392.296 261.558 391.951C264.66 390.918 265.005 388.161 266.038 385.749L266.383 386.093C267.417 386.438 267.417 385.749 267.072 385.06ZM214.35 325.79C213.661 325.101 212.971 324.756 211.938 324.067L212.282 323.723L214.35 325.446C214.694 325.446 214.35 325.446 214.35 325.79ZM219.519 362.661C218.485 362.317 217.796 361.283 216.073 360.249C217.796 359.215 218.485 358.526 219.519 358.182C220.897 357.837 221.931 358.871 221.931 360.249C221.931 361.972 221.242 362.661 219.519 362.661ZM224.688 367.83V361.972C226.411 364.384 226.411 365.763 224.688 367.83ZM230.201 364.384C229.167 363.695 228.478 363.35 227.1 362.317C229.512 360.938 230.89 360.938 231.235 362.317C231.235 363.006 230.546 363.695 230.201 364.384ZM243.64 401.255C245.018 402.289 246.397 403.323 248.12 404.357C244.329 405.39 244.329 405.39 243.64 401.255Z" fill="#F5EBDA" fill-opacity="0.05"/>
<path d="M200.221 295.466V298.568C200.91 299.601 202.289 300.98 203.322 300.98C211.248 301.324 218.829 301.324 226.754 301.324C226.754 301.324 236.058 301.669 240.538 300.635C242.261 300.291 243.295 298.568 244.328 296.845V294.088C242.605 293.399 240.882 292.365 239.16 292.365C227.443 292.02 215.383 292.02 203.667 292.71C202.633 292.365 200.91 294.088 200.221 295.466Z" fill="#F5EBDA" fill-opacity="0.05"/>
<path d="M208.835 280.65C207.457 280.65 206.423 282.717 205.045 284.785V286.852C206.768 287.886 208.146 289.264 210.214 289.609C214.004 290.298 218.139 289.609 221.93 289.609C225.72 289.609 229.855 289.953 233.646 289.609C235.713 289.609 237.781 288.92 239.504 288.231V286.163C237.781 283.751 236.403 280.994 234.335 280.994C230.889 280.65 227.443 280.65 223.997 280.305C223.997 280.65 224.342 280.65 224.342 280.994C224.342 281.683 223.308 282.373 222.619 283.062C221.93 282.373 220.896 281.339 220.896 281.339C221.241 280.994 221.241 280.65 221.585 280.305C217.45 280.305 212.97 280.305 208.835 280.65Z" fill="#F5EBDA" fill-opacity="0.05"/>
<path d="M525.512 327.513C524.823 324.412 524.134 321.311 524.134 318.209C524.134 318.898 524.134 319.243 523.789 319.932C521.722 316.486 520.688 314.763 519.31 312.696C522.067 312.351 523.445 312.007 524.134 312.696C524.134 312.351 524.134 312.007 524.134 311.317C520.688 275.825 512.418 241.366 498.634 210.697C493.466 211.042 490.709 204.15 494.155 200.704C456.939 120.76 390.433 58.3888 310.833 25.6528C311.178 28.7541 310.488 31.5108 310.488 34.9567C290.158 15.6597 262.59 6.70031 232.956 2.90983C222.274 2.90983 211.936 2.56528 201.254 1.8761C198.152 1.8761 195.396 1.18692 192.983 0.153151C181.267 -0.191439 169.896 0.153151 158.869 0.153151C158.524 1.18692 158.18 1.87606 157.835 2.90983C146.808 -0.88066 125.099 0.49772 117.174 10.1462C116.829 9.80164 116.485 9.8017 116.14 9.45711C116.485 8.07875 116.485 6.70037 117.518 5.6666C109.937 7.04496 102.012 8.76793 94.4308 11.1801C85.1268 14.9705 77.8906 18.0718 70.6542 21.1731C70.9988 20.1394 71.3433 19.1056 72.0324 18.0718C62.7285 21.1732 53.4246 24.9636 44.4653 29.0987C44.8099 29.7878 45.4991 30.477 45.8437 31.1662C44.1208 31.5108 43.0871 31.1662 42.0533 30.477C21.7225 39.7809 3.11453 50.4632 -14.1149 62.1793C-13.7704 62.8684 -14.4594 63.2131 -14.804 64.2468C-15.1485 63.9022 -15.4932 63.5576 -15.4932 63.213C-19.6283 66.3143 -23.7635 69.071 -27.8985 72.1723C-28.5877 73.5507 -29.2768 74.5845 -29.966 75.6182C-29.6214 75.9628 -28.9322 75.9629 -28.243 76.3075C-28.243 76.6521 -28.5877 76.9966 -28.9323 77.6858C-29.6214 77.3412 -29.966 76.9967 -30.6552 76.6521C-33.7565 80.4426 -37.8916 83.5438 -43.4051 84.9222C-49.9523 90.4356 -56.1547 96.2937 -62.0128 102.496C-62.0128 102.841 -61.6683 102.841 -61.6683 103.185C-62.3574 103.185 -62.7019 103.53 -63.0465 103.875C-63.0465 103.875 -63.0466 103.53 -62.702 103.53C-63.7358 103.875 -64.425 104.219 -65.1142 104.219V104.564C-65.1142 104.908 -64.7694 105.253 -64.7694 105.598C-64.4249 106.631 -63.7357 108.01 -63.0465 110.422C-65.114 109.388 -66.1478 108.699 -67.1816 108.01C-75.4518 116.624 -83.0328 125.928 -90.2692 135.232C-87.857 137.3 -87.857 137.989 -90.2692 141.09C-91.3029 139.367 -92.3366 138.678 -92.3366 137.989C-103.708 153.151 -113.357 169.002 -121.971 185.198C-120.938 186.232 -120.249 187.265 -119.215 188.299C-119.559 188.644 -119.904 188.988 -120.593 189.333C-121.282 188.644 -121.971 187.61 -122.661 186.921C-124.384 190.022 -126.106 193.468 -127.485 196.914C-126.451 197.603 -125.762 198.292 -124.728 198.981C-125.417 201.738 -126.106 204.495 -126.796 207.941C-141.958 210.697 -145.748 252.048 -151.606 266.521C-150.917 267.21 -150.572 267.899 -150.228 268.588C-150.572 268.588 -151.606 268.588 -152.295 268.588C-155.741 289.264 -162.633 311.662 -159.187 331.993C-159.532 333.027 -160.221 333.716 -160.91 334.405C-160.565 357.837 -162.978 384.026 -155.052 405.39C-155.741 405.735 -156.086 406.08 -156.775 406.08C-155.052 417.451 -152.64 428.478 -149.539 439.505C-146.437 443.295 -144.714 448.12 -144.025 452.944C-143.68 452.944 -143.681 452.944 -143.336 452.944C-137.478 493.95 -111.634 531.855 -87.1678 565.625C-85.7894 565.28 -84.7557 565.28 -83.3774 565.28C-81.6544 568.037 -75.7964 571.827 -79.9315 574.584C-55.8102 603.529 -23.4188 630.063 12.4185 650.738C16.8982 652.117 21.3778 654.184 25.5128 656.252C27.5804 657.286 29.3035 659.008 31.0264 660.387C48.6005 669.001 66.8637 676.238 85.4715 681.751C88.2282 679.684 90.6404 679.339 94.0863 680.028C108.559 694.501 188.504 702.427 201.598 690.021C201.943 692.778 202.977 693.467 203.321 694.846C229.855 693.123 256.043 687.954 281.198 680.373C285.333 678.65 289.469 676.927 293.604 675.549C306.009 667.968 318.759 661.076 332.542 659.698C340.468 655.907 348.393 651.427 355.974 646.948L355.63 646.603C357.008 645.569 357.008 644.536 358.042 645.569C362.177 643.157 366.312 640.401 370.447 637.644C371.825 632.82 372.17 627.306 376.305 633.509C388.71 624.894 400.771 615.59 412.142 605.252C410.075 604.563 409.041 603.185 409.041 600.428C411.798 599.394 414.21 599.739 415.933 601.806C443.5 576.307 466.932 546.328 485.195 512.902C481.405 506.011 485.195 506.7 489.33 503.598C489.33 503.943 489.33 504.632 489.33 504.977C489.675 504.288 490.02 503.254 490.364 502.565C490.364 502.22 490.364 501.531 490.364 501.186C490.709 501.186 490.709 501.186 491.053 501.186C516.898 451.566 528.614 388.85 525.512 327.513ZM-158.843 310.973C-157.464 310.628 -156.43 309.939 -155.052 309.595C-154.707 309.939 -154.707 310.628 -154.363 310.973C-156.086 310.973 -157.809 313.385 -158.843 310.973ZM-153.674 324.067C-154.363 323.723 -155.052 323.723 -155.741 323.378C-155.397 321.655 -154.363 322.689 -153.329 322.689C-153.329 323.378 -153.329 323.723 -153.674 324.067ZM511.729 274.446C511.384 274.791 511.04 275.136 510.695 275.136C509.661 273.757 508.283 272.724 507.249 271.345C509.661 271.345 511.04 272.723 511.729 274.446ZM466.587 160.043C466.932 160.043 467.277 160.043 467.621 160.043C467.621 161.076 467.621 162.11 467.966 162.799C467.621 162.799 467.277 162.799 466.932 162.799V160.043H466.587ZM359.076 56.3212C359.765 56.6658 360.798 56.6658 361.488 57.0104C361.488 57.355 361.488 57.6996 361.488 58.0442H359.076C359.076 57.6996 359.076 57.0104 359.076 56.3212ZM337.022 44.6052C337.711 44.6052 338.745 45.6389 339.434 46.3281C338.745 47.0173 338.056 48.0511 337.022 49.4294C334.265 47.3619 333.921 45.6389 337.022 44.6052ZM280.165 18.0718C279.131 17.0381 278.097 16.0043 277.063 14.626C279.82 14.2814 279.82 16.3489 280.165 18.0718ZM265.692 11.1801C266.036 11.1801 266.381 11.8692 266.726 12.2138C265.347 12.903 265.003 14.2813 263.624 12.2138C264.658 11.8692 265.003 11.1801 265.692 11.1801ZM258.456 23.2407C261.212 24.9636 258.111 26.6865 256.388 23.9298C257.422 23.5852 257.766 23.2407 258.456 23.2407ZM196.085 8.76789C198.152 10.1462 197.808 11.5246 197.119 12.5584C194.362 13.5922 194.362 10.1462 196.085 8.76789ZM177.132 11.8692C173.342 12.2138 173.342 12.2137 171.963 8.07867C176.098 7.0449 176.098 7.04492 177.132 11.8692ZM102.356 13.5921V18.761C96.8431 18.0718 96.8431 11.5246 102.356 13.5921ZM15.8644 55.6321C16.5536 56.3213 16.8982 57.0105 17.2428 57.6996C15.5199 59.078 15.1753 58.0442 13.7969 56.3212C14.8307 55.9766 15.8644 55.6321 15.8644 55.6321ZM-18.5946 81.8209C-17.5608 82.1655 -16.8717 82.51 -15.8379 82.51C-16.1825 82.8546 -16.1823 83.5438 -16.5269 83.8884C-17.2161 83.1992 -19.6283 82.8547 -18.5946 81.8209ZM-142.647 248.947C-142.302 248.947 -141.613 248.947 -141.268 248.947C-141.268 250.67 -140.924 252.393 -140.924 254.805C-141.958 254.805 -142.647 254.805 -143.681 254.46C-143.336 252.737 -142.991 251.014 -142.647 248.947ZM-148.505 262.041C-146.782 263.075 -147.126 263.42 -148.16 265.142C-149.539 263.764 -149.883 263.075 -148.505 262.041ZM-109.566 514.97C-111.634 513.936 -114.046 513.936 -112.323 509.801C-110.255 510.146 -108.188 510.49 -105.086 510.835C-107.154 512.902 -108.188 513.936 -109.566 514.97ZM-96.8164 540.125C-99.2286 538.747 -99.2286 538.057 -96.8164 536.679V540.125ZM-44.0941 603.874C-46.1616 603.874 -46.5064 602.84 -46.851 601.117C-45.8172 600.773 -45.128 600.428 -43.4051 599.739C-43.7496 601.462 -43.7495 602.496 -44.0941 603.874ZM18.6211 649.704C17.5873 649.36 16.209 649.704 16.5536 648.326H18.6211C18.6211 649.015 18.6211 649.36 18.6211 649.704ZM252.253 672.103C251.908 665.9 255.01 669.346 256.733 672.447C255.354 672.447 253.976 672.447 252.253 672.103ZM496.567 481.545C496.222 480.511 495.878 479.822 495.533 478.788C495.878 478.788 496.222 478.788 496.567 478.788C496.911 479.822 496.911 480.511 497.256 481.545C496.911 481.545 496.911 481.545 496.567 481.545ZM497.945 437.093C498.29 435.37 498.29 433.991 498.634 432.269C497.945 438.127 496.222 442.951 493.121 447.43C483.817 477.754 470.723 506.355 453.838 532.544C453.149 534.956 452.459 537.024 451.081 539.436C448.669 544.949 444.534 549.429 441.777 554.598C439.71 559.422 433.507 563.902 428.338 566.314C401.46 598.016 367.69 623.516 328.752 640.4C324.961 644.536 319.792 647.292 314.279 648.326L314.624 649.36C312.556 649.705 310.833 650.049 308.765 650.738C308.765 650.394 308.765 649.705 308.765 649.36H308.421C306.353 650.738 303.941 651.772 301.184 652.461C299.806 652.806 298.428 652.806 297.05 653.15C258.111 667.623 216.416 675.204 174.031 674.515C172.997 676.238 170.93 676.927 169.207 676.582C166.45 677.616 163.349 677.961 159.903 677.961C153.011 677.961 147.498 675.893 143.018 672.447C94.4309 667.278 45.8436 650.738 1.39158 622.137C1.04699 622.137 1.04716 622.137 0.702571 622.137C-0.675787 621.793 -4.81103 620.07 -7.22316 618.691C-8.9461 617.658 -12.0474 615.245 -13.4257 613.867C-14.1149 613.178 -14.4595 612.489 -15.1487 611.8C-16.1824 612.144 -17.5608 612.144 -18.5946 611.8C-19.2837 612.144 -19.9728 612.833 -20.662 613.523C-22.0404 609.387 -25.8309 606.286 -25.8309 602.496C-63.3911 573.206 -93.715 535.301 -114.735 493.261C-118.181 489.47 -120.593 484.301 -121.282 479.133C-131.62 456.045 -138.856 431.924 -142.991 407.803C-146.437 397.809 -148.505 387.816 -149.194 377.479C-149.538 373.688 -148.849 370.242 -147.471 367.141C-148.849 341.641 -147.126 316.142 -142.647 290.987C-144.025 286.162 -144.025 281.338 -142.302 277.203C-140.924 273.413 -139.546 270.656 -137.478 267.899C-134.032 254.116 -129.897 240.677 -124.384 227.582C-124.039 224.826 -123.35 222.413 -122.316 220.001C-122.316 219.657 -122.316 219.312 -122.316 218.623C-122.316 218.623 -121.971 218.623 -121.971 218.968C-121.282 217.245 -120.249 215.866 -119.215 214.488C-100.262 165.212 -56.1548 126.618 -23.0742 88.3681C-20.3175 86.9897 -17.5607 85.6113 -14.804 87.3343C6.56059 71.4831 28.9589 59.078 51.7018 49.0849C60.3165 41.5039 71.3433 36.3351 82.0256 35.3013C85.1269 34.9567 88.2282 34.9567 91.6741 34.9567C136.126 22.5515 182.301 20.1393 228.821 27.0311C230.544 26.6865 232.611 26.6866 234.334 26.342C234.679 26.342 235.023 26.342 235.712 26.342C236.057 23.9299 235.712 23.5852 232.267 22.2069C236.057 18.4164 237.78 23.5852 239.158 27.0311C240.192 27.0311 240.881 27.3757 241.571 27.3757C244.672 28.4095 247.429 29.7878 250.185 30.8216C289.468 39.4363 327.029 54.5983 361.143 76.3075C363.9 77.3412 366.657 78.375 369.413 79.7534C373.204 81.4763 376.65 83.8884 380.096 86.3005C386.987 90.7802 392.501 95.6044 396.636 101.462H401.46C400.082 102.841 399.048 103.185 397.67 102.841C415.933 116.624 432.129 132.476 445.568 149.705C448.669 152.117 451.426 154.874 453.838 158.32C457.628 163.144 460.04 168.313 463.142 173.482C463.831 174.86 464.52 176.238 465.209 177.961C490.364 219.312 504.148 266.865 507.938 315.108C508.972 321.655 509.317 327.858 509.661 334.405C509.661 336.817 509.317 339.229 508.972 341.641C508.972 368.175 506.215 394.708 500.357 420.897C500.013 425.377 498.979 431.235 497.945 437.093ZM512.763 426.755C513.452 426.755 513.796 427.1 514.485 427.444C514.485 428.823 514.141 430.545 514.141 431.924C512.763 431.579 511.384 431.579 509.317 430.89C510.695 429.167 511.729 427.789 512.763 426.755ZM511.729 438.471C511.384 438.126 511.384 437.782 511.04 437.437C512.073 436.748 513.107 436.059 514.141 435.37C514.486 435.714 514.485 436.059 514.83 436.403C513.796 437.093 512.763 437.782 511.729 438.471ZM511.729 262.041C511.729 261.697 511.729 261.007 511.729 260.663C512.763 260.318 513.796 260.318 514.83 259.974C516.553 263.075 513.796 264.453 511.729 262.041Z" fill="#F5EBDA" fill-opacity="0.05"/>
</svg>
